<svg width="253" height="91" viewBox="0 0 253 91" fill="none" xmlns="http://www.w3.org/2000/svg">
<ellipse cx="126.042" cy="41.8512" rx="125" ry="16.5" transform="rotate(9 126.042 41.8512)" fill="black"/>
<ellipse cx="127.108" cy="41.1139" rx="82.9596" ry="10" transform="rotate(9 127.108 41.1139)" fill="#FFF7EB"/>
<path d="M230.579 57.3978C230.555 57.5503 230.433 57.7702 230.062 58.037C229.695 58.3 229.144 58.5649 228.394 58.8205C226.898 59.3305 224.713 59.7689 221.897 60.1171C216.274 60.8126 208.231 61.1376 198.374 61.003C178.667 60.734 151.763 58.6286 122.578 54.0062C93.3931 49.3837 67.4608 43.1207 48.9397 37.3351C39.6769 34.4415 32.2809 31.6714 27.2624 29.2908C24.7498 28.0989 22.8552 27.0148 21.6231 26.0735C21.0059 25.6019 20.5768 25.1824 20.318 24.8212C20.0561 24.4558 20.0083 24.2078 20.0332 24.0506C20.0571 23.8996 20.1789 23.68 20.5537 23.4131C20.9229 23.1502 21.478 22.8856 22.2334 22.6306C23.7409 22.1217 25.9414 21.6853 28.7751 21.3395C34.4352 20.6487 42.5268 20.3302 52.4315 20.4712C72.2363 20.7531 99.2367 22.8714 128.422 27.4939C157.607 32.1163 183.442 38.3663 201.866 44.139C211.08 47.0261 218.428 49.7896 223.41 52.1652C225.904 53.3546 227.783 54.4365 229.005 55.3761C229.617 55.8468 230.042 56.2655 230.298 56.6261C230.557 56.9906 230.604 57.2391 230.579 57.3978Z" stroke="#FFF7EB"/>
<path d="M242.405 59.2708C242.384 59.4032 242.265 59.6188 241.849 59.8859C241.443 60.1463 240.832 60.4047 240.003 60.6496C238.348 61.138 235.931 61.5414 232.819 61.8433C226.602 62.4465 217.703 62.6366 206.793 62.3354C184.977 61.7332 155.169 59.168 122.794 54.0403C90.419 48.9126 61.6151 42.1945 41.0193 36.0796C30.7192 33.0214 22.4842 30.1177 16.8855 27.6436C14.0828 26.405 11.9619 25.2832 10.5763 24.3141C9.88176 23.8282 9.39543 23.3968 9.09972 23.0263C8.79741 22.6474 8.74996 22.4043 8.77173 22.2669C8.79245 22.1361 8.91198 21.9207 9.33159 21.6535C9.74035 21.3932 10.3557 21.1352 11.1914 20.891C12.8584 20.404 15.2925 20.0028 18.4248 19.7036C24.6819 19.1058 33.6345 18.923 44.5985 19.2314C66.5219 19.8482 96.4376 22.428 128.813 27.5557C161.188 32.6834 189.884 39.3868 210.372 45.4872C220.618 48.538 228.8 51.4343 234.358 53.9029C237.14 55.1386 239.244 56.258 240.618 57.2252C241.306 57.7101 241.788 58.1407 242.081 58.5105C242.38 58.8882 242.427 59.1317 242.405 59.2708Z" stroke="#FFF7EB"/>
<path d="M166 41.5C166 61.9523 148.135 79 125.5 79C102.865 79 85 61.9523 85 41.5C85 21.0477 102.865 4 125.5 4C148.135 4 166 21.0477 166 41.5Z" stroke="black" stroke-width="8"/>
<path d="M94.5643 25.8769C95.4283 20.422 100.551 16.7004 106.006 17.5643L152.608 24.9454C158.063 25.8094 161.784 30.9318 160.92 36.3866L159.356 46.2635L93 35.7538L94.5643 25.8769Z" fill="#FFF7EB"/>
<path d="M96.1033 26.8133C95.8434 27.0992 95.6644 27.5314 95.3661 27.7635C95.2265 27.872 95.3168 27.9535 95.2514 28.0771C95.2032 28.168 95.0398 28.319 94.9472 28.372C94.4935 28.6312 94.8177 27.6523 94.891 27.4873C94.9131 27.4377 95.1665 26.9885 95.1742 27.0076C95.2593 27.2203 95.0643 27.3432 94.9659 27.4663C94.937 27.5023 94.8596 27.5989 94.8161 27.6114C94.7344 27.6347 94.7319 27.7272 94.6804 27.7916C94.6074 27.8827 94.7296 27.7195 94.7553 27.6745C94.8238 27.5546 94.968 27.4847 95.0408 27.3609C95.0852 27.2854 95.1446 27.2328 95.1859 27.1503C95.2244 27.0732 95.2136 26.91 95.2818 26.8554C95.4087 26.7539 95.4031 26.4973 95.5346 26.3921C95.5814 26.3546 95.5993 26.2533 95.6399 26.2025C95.6739 26.16 95.7563 26.0884 95.799 26.0457C95.9141 25.9306 96.0211 25.8236 96.136 25.7087C96.3724 25.4723 96.4881 25.1949 96.693 24.9387C96.8526 24.7393 96.9514 24.283 97.1985 24.1594" stroke="#FFF7EB" stroke-width="3" stroke-linecap="round"/>
<path d="M94.8958 27.1336C94.7399 27.118 94.5075 27.0472 94.3824 26.9448C94.3229 26.8962 94.247 26.8863 94.1866 26.8369C94.1598 26.815 94.0919 26.7461 94.0597 26.739C94.0061 26.7271 94.0271 26.684 93.9698 26.684C93.9278 26.684 93.8859 26.684 93.8439 26.684C93.7562 26.684 93.6584 26.6888 93.5752 26.6651C93.5208 26.6495 93.5994 26.6132 93.6191 26.6121C93.6569 26.61 93.6972 26.5595 93.723 26.5362C93.78 26.4849 93.8328 26.4282 93.8889 26.3784C94.0049 26.2752 94.0962 26.1365 94.1986 26.0227C94.2957 25.9148 94.3714 25.8021 94.4643 25.6861C94.5709 25.5528 94.6238 25.3717 94.742 25.2535C94.7888 25.2068 94.8286 25.0911 94.8559 25.0297C94.8859 24.9622 94.9175 24.8916 94.9638 24.828C95.0109 24.7631 95.0395 24.6885 95.0796 24.6162C95.1179 24.5474 95.1762 24.4764 95.2015 24.4004" stroke="#FFF7EB" stroke-linecap="round"/>
<path d="M94.015 27.142C93.9918 27.1211 93.9634 27.1146 93.9366 27.0999C93.899 27.0793 93.8863 27.041 93.8581 27.0112C93.8101 26.9605 93.7897 26.8992 93.7462 26.8478C93.7218 26.8189 93.6869 26.79 93.6546 26.7729C93.6371 26.7636 93.595 26.7576 93.5834 26.7431C93.5548 26.7073 93.5075 26.7057 93.4759 26.6741C93.453 26.6512 93.5651 26.542 93.5805 26.5142C93.6103 26.4607 93.6684 26.4242 93.7077 26.3762C93.7635 26.308 93.811 26.2145 93.8501 26.1364C93.91 26.0166 94.0327 25.9286 94.1124 25.8262C94.1965 25.718 94.2655 25.5925 94.3478 25.4781C94.3716 25.4451 94.4096 25.4212 94.4336 25.3866C94.4587 25.3503 94.4817 25.2929 94.5128 25.2645C94.5471 25.233 94.5653 25.1665 94.5905 25.125C94.6169 25.0815 94.6378 25.0349 94.6624 24.9906C94.6981 24.9264 94.7495 24.8583 94.7765 24.7907C94.805 24.7196 94.8491 24.6272 94.8913 24.5626C94.941 24.4867 94.9777 24.3847 95.0352 24.317C95.0562 24.2923 95.0884 24.2292 95.0999 24.1986C95.1191 24.1472 95.1621 24.1062 95.1791 24.0554" stroke="#FFF7EB" stroke-linecap="round"/>
<path d="M97.3988 21.7532C97.392 21.7227 97.3275 21.6788 97.3013 21.6646C97.2546 21.6395 97.1854 21.6254 97.1464 21.5903C97.1078 21.5556 97.0395 21.5667 96.9878 21.5667C96.9632 21.5667 96.9456 21.5659 96.9242 21.5564C96.9022 21.5466 96.8785 21.5259 96.8526 21.5333C96.8422 21.5363 96.8479 21.5903 96.8479 21.6006C96.8479 21.6427 96.8172 21.6712 96.8037 21.7089C96.7851 21.7606 96.7471 21.806 96.7227 21.8549C96.6906 21.919 96.673 21.9919 96.6403 22.0573C96.6227 22.0925 96.6141 22.1329 96.5937 22.1665C96.5726 22.2013 96.5483 22.2546 96.5155 22.2786C96.484 22.3016 96.4596 22.3353 96.4284 22.3595C96.4052 22.3776 96.3622 22.3585 96.3442 22.3765C96.3122 22.4085 96.2642 22.4378 96.242 22.4777C96.2074 22.5401 96.1596 22.5949 96.1191 22.6533C96.0095 22.8117 95.8782 22.9582 95.8009 23.135C95.7678 23.2104 95.7249 23.289 95.7039 23.368C95.6824 23.4486 95.6282 23.5193 95.5918 23.5921C95.5263 23.7232 95.4581 23.8545 95.4581 24.0073" stroke="#FFF7EB" stroke-linecap="round"/>
<path d="M159.025 35.355C159.363 35.4758 159.476 35.9333 159.589 36.2232C159.646 36.3685 159.661 36.5718 159.76 36.6905C159.819 36.7608 159.832 36.8854 159.887 36.9546C159.952 37.0355 160.025 37.0036 160.092 37.0572C160.128 37.0856 160.297 37.0838 160.343 37.0971C160.453 37.1285 160.488 37.093 160.581 37.1674C160.761 37.3119 160.629 36.9246 160.571 36.852C160.528 36.7986 160.529 36.6723 160.529 36.6032C160.529 36.408 160.63 36.6573 160.685 36.6886C160.753 36.7277 161.003 37.0124 161.008 37.099C161.028 37.4425 160.632 36.4818 160.632 36.1377C160.632 35.9449 160.761 36.503 160.854 36.6715C160.947 36.8382 160.974 37.0795 160.974 37.27C160.974 37.3687 161.008 37.4298 161.008 37.5265C161.008 37.6716 160.993 37.4553 160.957 37.3897C160.843 37.1848 160.781 36.9525 160.727 36.7228C160.661 36.4441 160.65 36.165 160.6 35.8869C160.585 35.8088 160.554 35.6439 160.632 35.7311C160.69 35.7959 160.662 35.9521 160.735 35.9971C160.894 36.0965 160.819 36.4512 160.888 36.6051C160.939 36.7172 160.936 36.909 160.94 37.0306C160.945 37.1961 161.042 37.347 161.042 37.5094" stroke="#FFF7EB" stroke-linecap="round"/>
<circle cx="193" cy="11" r="5" fill="black"/>
<circle cx="47.5" cy="62.5" r="3.5" fill="black"/>
<circle cx="174" cy="87" r="4" fill="black"/>
</svg>
