<svg width="53" height="50" viewBox="0 0 53 50" fill="none" xmlns="http://www.w3.org/2000/svg">
<rect width="52.5641" height="50" fill="black"/>
<path d="M11.885 13.2431C10.845 13.2431 10.005 12.9364 9.36502 12.3231C8.72502 11.7098 8.40502 10.9231 8.40502 9.96309C8.40502 8.84309 8.75169 7.92309 9.44502 7.20309C10.165 6.48309 11.125 6.12309 12.325 6.12309C13.525 6.12309 14.445 6.42976 15.085 7.04309C15.725 7.65643 16.045 8.44309 16.045 9.40309C16.045 10.5498 15.685 11.4831 14.965 12.2031C14.245 12.8964 13.2317 13.2431 11.925 13.2431H11.885ZM9.44502 20.8831L6.76502 20.1231V17.1231L14.765 16.1631H14.845L16.085 17.0031V35.9231L18.485 36.2831V38.9231H6.96502V36.2831L9.44502 35.9231V20.8831ZM23.5028 20.8831L21.1428 20.1631V17.0431L28.4228 16.1631H28.5428L29.5828 17.0031V18.4831L29.5428 19.4031C30.4762 18.5231 31.6628 17.7764 33.1028 17.1631C34.5428 16.5498 36.0495 16.2431 37.6228 16.2431C39.2228 16.2431 40.4762 16.5364 41.3828 17.1231C42.3162 17.6831 42.9828 18.5898 43.3828 19.8431C43.8095 21.0964 44.0228 22.8031 44.0228 24.9631V35.9231L46.2628 36.2431V38.9231H35.3828V36.2831L37.3428 35.9231V25.0031C37.3428 23.7231 37.2495 22.7364 37.0628 22.0431C36.9028 21.3231 36.6095 20.8031 36.1828 20.4831C35.7562 20.1631 35.1428 20.0031 34.3428 20.0031C33.1162 20.0031 31.7295 20.5764 30.1828 21.7231V35.9231L32.3828 36.2831V38.9231H21.3028V36.2831L23.5028 35.9231V20.8831Z" fill="#FFF7EB"/>
</svg>
