<svg width="57" height="50" viewBox="0 0 57 50" fill="none" xmlns="http://www.w3.org/2000/svg">
<path d="M0 6.21143C0 3.45 2.23858 1.21143 5 1.21143H9.52041C12.2818 1.21143 14.5204 3.45 14.5204 6.21143V45C14.5204 47.7614 12.2818 50 9.52041 50H5C2.23858 50 0 47.7614 0 45V6.21143Z" fill="black"/>
<path d="M42.3996 6.21143C42.3996 3.45 44.6382 1.21143 47.3996 1.21143H51.92C54.6814 1.21143 56.92 3.45 56.92 6.21143V45C56.92 47.7614 54.6814 50 51.92 50H47.3996C44.6382 50 42.3996 47.7614 42.3996 45V6.21143Z" fill="black"/>
<path d="M2.94788 10.3611L9.77342 3.53554C11.726 1.58292 14.8919 1.58291 16.8445 3.53554L38.658 25.3491L28.2969 35.7101L2.94788 10.3611Z" fill="black"/>
<path d="M39.874 3.5619C41.8266 1.60928 44.9924 1.60928 46.945 3.5619L53.677 10.2938L35.2426 28.7283L24.9751 18.4608L39.874 3.5619Z" fill="black"/>
<rect x="43.5612" y="1.21143" width="1.74245" height="0.580817" fill="black"/>
<path d="M8.87163 2.54354C9.12314 1.60491 10.0879 1.04788 11.0266 1.29939L14.5882 2.25371C15.5268 2.50522 16.0838 3.47002 15.8323 4.40865C15.5808 5.34729 14.616 5.90432 13.6774 5.65281L10.1158 4.69848C9.17716 4.44698 8.62013 3.48218 8.87163 2.54354Z" fill="black"/>
</svg>
